<svg width="122" height="26" viewBox="0 0 122 26" fill="none" xmlns="http://www.w3.org/2000/svg">
<path d="M63.5375 10.5021C65.6217 10.5021 67.3891 11.9824 67.5252 13.8939H59.479C59.6152 11.9824 61.2909 10.5021 63.5349 10.5021M67.2163 17.6591C66.237 18.7397 65.0326 19.2866 63.6056 19.2866C62.4273 19.2866 61.4533 18.9448 60.6599 18.2849C59.8665 17.6249 59.4581 16.7599 59.4371 15.6897H69.8608V14.893C69.8608 11.2514 67.1875 8.52222 63.5139 8.52222C59.8404 8.52222 57.1016 11.1384 57.1016 14.9404C57.1016 18.7424 59.6623 21.2665 63.6056 21.2665C66.1401 21.2665 68.0856 20.291 69.4236 18.319L67.2189 17.6591H67.2163Z" fill="white"/>
<path d="M81.9254 14.0886C81.9254 12.1771 80.0664 10.6074 77.7544 10.6074C75.2172 10.6074 73.5179 12.3374 73.5179 14.9089C73.5179 17.4804 75.1936 19.2105 77.846 19.2105C80.1109 19.2105 81.9254 17.6408 81.9254 15.7293V14.0912V14.0886ZM77.5292 8.53546C79.3411 8.53546 80.9069 9.12705 81.8809 10.1972H81.9254V4.32593H84.2584V20.9406H82.059V19.5759H82.0145C81.0849 20.6697 79.4746 21.2824 77.6392 21.2824C73.9002 21.2824 71.1797 18.5978 71.1797 14.9115C71.1797 11.2252 73.9211 8.53809 77.5266 8.53809" fill="white"/>
<path d="M86.3632 8.87727H88.6987V20.9379H86.3632V8.87727ZM87.4288 4.32593H87.5414C88.217 4.32593 88.7642 4.87546 88.7642 5.55382C88.7642 6.23218 88.217 6.78171 87.5414 6.78171H87.4288C86.7533 6.78171 86.2061 6.23218 86.2061 5.55382C86.2061 4.87546 86.7533 4.32593 87.4288 4.32593Z" fill="white"/>
<path d="M95.1296 8.87716H96.9886V10.8807H93.137C93.137 9.77376 94.0299 8.87716 95.1322 8.87716M93.1344 10.8781V17.7511C93.1344 18.5688 93.4277 18.8212 94.4252 18.8212H96.4204V20.9378H94.3127C91.7964 20.9378 90.7988 20.0044 90.7988 17.7984V6.05591H93.1344V10.8807V10.8781Z" fill="white"/>
<path d="M56.2919 8.52222C54.48 8.52222 53.1054 9.13748 52.1471 10.205L52.1418 10.0262V8.86666H49.9424V20.9273H52.278V14.3041C52.278 13.3628 52.4377 12.9447 52.6236 12.5793C53.252 11.3461 54.6214 10.5021 56.3155 10.5021C56.5014 10.5021 56.6847 10.5152 56.8627 10.5363L57.2581 8.58795C56.9439 8.54588 56.6218 8.52222 56.2919 8.52222Z" fill="white"/>
<path d="M45.8448 15.9132C45.0147 17.9667 43.2447 19.0605 40.9484 19.0605C37.6179 19.0605 35.2142 16.5811 35.2142 12.9605C35.2142 9.33994 37.6152 6.8605 40.9484 6.8605C43.3364 6.8605 45.143 7.96743 45.9311 9.96045L48.2824 9.25317C47.311 6.4398 44.4465 4.6545 40.9484 4.6545C36.2563 4.58614 32.677 8.27243 32.7451 12.9605C32.677 17.6486 36.2589 21.3349 40.9484 21.2665C44.4046 21.2665 47.1487 19.4943 48.1987 16.6179L45.8448 15.9132Z" fill="white"/>
<path d="M106.415 16.6363C106.415 18.0245 104.601 19.2314 102.564 19.2314C100.773 19.2314 99.9792 18.7292 99.9792 17.6144C99.9792 16.6126 100.932 16.0657 103.378 15.6345C105.281 15.2927 106.075 14.9745 106.371 14.4276H106.415V16.6363ZM103.467 8.53535C101.948 8.53535 100.657 8.92185 99.6153 9.67384C98.6831 10.3312 98.0809 11.1962 97.7929 12.24L99.9792 12.8947C100.409 11.425 101.697 10.5389 103.488 10.5389C105.143 10.5389 106.229 11.1988 106.229 12.2243C106.229 13.0446 105.412 13.4758 102.967 13.8623C99.1597 14.4303 97.6855 15.5241 97.6855 17.6854C97.6855 19.8467 99.3849 21.2796 102.126 21.2796C104.006 21.2796 105.661 20.596 106.454 19.4812H106.499V20.9378H108.698V12.7212C108.698 10.1497 106.659 8.53271 103.464 8.53271" fill="white"/>
<path d="M112.045 16.3866C112.474 18.3428 113.925 19.3235 116.35 19.3235C118.457 19.3235 119.225 18.4953 119.225 17.5803C119.225 16.7941 118.819 16.1605 116.122 15.774C111.838 15.1824 110.343 14.1569 110.343 12.1324C110.343 9.97107 112.427 8.53809 115.577 8.53809C118.224 8.53809 120.364 10.1262 121.091 12.3848L118.999 12.8949C118.203 11.2463 116.831 10.4943 115.307 10.4207C113.613 10.3392 112.686 11.0438 112.747 12.0482C112.789 12.7581 113.273 13.4575 116.305 13.8414C120.68 14.3962 121.492 16.2604 121.492 17.5829C121.492 19.0632 120.115 21.285 116.35 21.285C112.859 21.285 110.275 19.5339 109.869 16.8704L112.045 16.3919V16.3866Z" fill="white"/>
<path d="M19.5487 25.8783H6.21075C2.7807 25.8783 0 23.0992 0 19.6679V6.33202C0 2.90339 2.7807 0.121582 6.21075 0.121582H19.5487C22.9787 0.121582 25.7594 2.90077 25.7594 6.33202V19.6679C25.7594 23.0965 22.9787 25.8783 19.5487 25.8783Z" fill="#8EDB00"/>
<path d="M8.04364 11.9615C8.04364 11.9615 8.29238 7.41804 11.6779 5.75105C12.9426 5.12791 13.9218 4.87549 15.0058 4.87549C16.8832 4.87549 18.1741 5.33299 19.1743 6.0429C20.5751 7.03416 21.1511 8.37774 21.1511 8.37774L18.4071 8.65119C18.4071 8.65119 17.0063 6.58454 14.2544 6.5451C8.75059 6.46097 8.04102 11.9641 8.04102 11.9641" fill="#292929"/>
<path d="M8.01432 13.6889C8.01432 13.6889 8.26307 18.2324 11.6486 19.8993C12.9133 20.5225 13.8925 20.7749 14.9765 20.7749C16.8539 20.7749 18.1448 20.3174 19.145 19.6075C20.5458 18.6162 21.1218 17.2727 21.1218 17.2727L18.3778 16.9992C18.3778 16.9992 16.977 19.0659 14.2251 19.1053C8.72129 19.1894 8.01172 13.6863 8.01172 13.6863" fill="#292929"/>
<path d="M5.87508 13.3865C5.80176 11.4697 6.27046 9.7843 6.8334 8.50645C8.66887 4.33636 12.8792 3.50024 12.8792 3.50024C12.8792 3.50024 10.9207 3.70795 8.87572 4.70972C6.5768 5.8377 4.35381 8.13835 3.82752 11.6353C3.75682 12.1112 3.70969 12.9447 3.74373 13.4706C3.86941 15.3479 4.4952 16.936 5.45352 18.227C6.66321 19.8546 7.99857 20.8116 9.16898 21.398C10.6693 22.1473 12.7954 22.3577 12.7954 22.3577C12.7954 22.3577 8.70813 21.4821 6.91718 17.5618C6.41445 16.4601 5.9353 14.9825 5.87508 13.3891" fill="#292929"/>
</svg>
