<svg width="120" height="120" viewBox="0 0 120 120" fill="none" xmlns="http://www.w3.org/2000/svg">
<circle cx="60" cy="60" r="60" fill="#8EDB00"/>
<path d="M37.0122 54.9878C37.0122 54.9878 38.1696 33.8364 53.9221 26.0761C59.8065 23.1751 64.3629 22 69.4066 22C78.1418 22 84.148 24.1298 88.8019 27.4347C95.3198 32.0493 98 38.3042 98 38.3042L85.2322 39.5772C85.2322 39.5772 78.7144 29.9562 65.9101 29.7726C40.3016 29.3809 37 55 37 55" fill="#292929"/>
<path d="M37.0121 63.0119C37.0121 63.0119 38.1695 83.5223 53.9221 91.0475C59.8064 93.8605 64.3629 95 69.4066 95C78.1418 95 84.148 92.9347 88.8019 89.73C95.3198 85.2552 98 79.1899 98 79.1899L85.2323 77.9555C85.2323 77.9555 78.7144 87.2849 65.9101 87.4629C40.3016 87.8427 37 63 37 63" fill="#292929"/>
<path d="M27.0729 61.6107C26.7282 52.7676 28.9316 44.9919 31.5781 39.0965C40.2068 19.8575 60 16 60 16C60 16 50.7927 16.9583 41.1792 21.58C30.3718 26.784 19.9212 37.3982 17.4471 53.5318C17.1147 55.7274 16.8931 59.5728 17.0532 61.9989C17.644 70.6601 20.5859 77.9869 25.0911 83.943C30.778 91.4518 37.0557 95.8673 42.5579 98.5724C49.611 102.03 59.6061 103 59.6061 103C59.6061 103 40.3914 98.9605 31.9719 80.874C29.6085 75.7913 27.356 68.9739 27.0729 61.6228" fill="#292929"/>
</svg>
